<mxfile host="app.diagrams.net" modified="2020-11-29T12:09:10.350Z" agent="5.0 (Macintosh; Intel Mac OS X 10_15_6) AppleWebKit/537.36 (KHTML, like Gecko) Chrome/85.0.4183.102 Safari/537.36" etag="VKQSTTzyBxmPpn881Wav" version="13.9.9" type="github">
  <diagram id="R2lEEEUBdFMjLlhIrx00" name="Page-1">
    <mxGraphModel dx="1796" dy="623" grid="1" gridSize="10" guides="1" tooltips="1" connect="1" arrows="1" fold="1" page="1" pageScale="1" pageWidth="850" pageHeight="1100" math="0" shadow="0" extFonts="Permanent Marker^https://fonts.googleapis.com/css?family=Permanent+Marker">
      <root>
        <mxCell id="0" />
        <mxCell id="1" parent="0" />
        <mxCell id="lVH471WeTJG-a-mxHw4O-14" style="edgeStyle=orthogonalEdgeStyle;rounded=0;orthogonalLoop=1;jettySize=auto;html=1;exitX=0.5;exitY=1;exitDx=0;exitDy=0;entryX=0.5;entryY=0;entryDx=0;entryDy=0;endArrow=ERoneToMany;endFill=0;fontSize=8;startArrow=ERmandOne;startFill=0;" edge="1" parent="1" source="lVH471WeTJG-a-mxHw4O-11" target="lVH471WeTJG-a-mxHw4O-13">
          <mxGeometry relative="1" as="geometry" />
        </mxCell>
        <mxCell id="lVH471WeTJG-a-mxHw4O-11" value="&lt;font style=&quot;font-size: 8px;&quot;&gt;TMI_CREDIT_POOL&lt;/font&gt;" style="whiteSpace=wrap;html=1;align=center;strokeWidth=2;fillColor=#FEFDD3;fontSize=8;" vertex="1" parent="1">
          <mxGeometry x="20" y="200" width="140" height="40" as="geometry" />
        </mxCell>
        <mxCell id="lVH471WeTJG-a-mxHw4O-19" style="edgeStyle=orthogonalEdgeStyle;rounded=0;orthogonalLoop=1;jettySize=auto;html=1;exitX=1;exitY=0.5;exitDx=0;exitDy=0;entryX=0;entryY=0.5;entryDx=0;entryDy=0;endArrow=ERoneToMany;endFill=0;fontSize=8;startArrow=ERmandOne;startFill=0;" edge="1" parent="1" source="lVH471WeTJG-a-mxHw4O-13" target="lVH471WeTJG-a-mxHw4O-16">
          <mxGeometry relative="1" as="geometry" />
        </mxCell>
        <mxCell id="lVH471WeTJG-a-mxHw4O-13" value="&lt;font style=&quot;font-size: 8px&quot;&gt;TMI_CREDIT_QUOTA&lt;/font&gt;" style="whiteSpace=wrap;html=1;align=center;strokeWidth=2;fillColor=#FEFDD3;fontSize=8;" vertex="1" parent="1">
          <mxGeometry x="20" y="290" width="140" height="40" as="geometry" />
        </mxCell>
        <mxCell id="lVH471WeTJG-a-mxHw4O-15" value="&lt;font style=&quot;font-size: 8px&quot;&gt;TMI_FINANCING_VARIETY&lt;/font&gt;" style="whiteSpace=wrap;html=1;align=center;strokeWidth=2;fillColor=#FEFDD3;fontSize=8;" vertex="1" parent="1">
          <mxGeometry x="410" y="700" width="160" height="40" as="geometry" />
        </mxCell>
        <mxCell id="lVH471WeTJG-a-mxHw4O-20" style="edgeStyle=orthogonalEdgeStyle;rounded=0;orthogonalLoop=1;jettySize=auto;html=1;exitX=1;exitY=0.5;exitDx=0;exitDy=0;entryX=0;entryY=0.5;entryDx=0;entryDy=0;endArrow=ERmandOne;endFill=0;fontSize=8;startArrow=ERmandOne;startFill=0;" edge="1" parent="1" source="lVH471WeTJG-a-mxHw4O-16" target="lVH471WeTJG-a-mxHw4O-17">
          <mxGeometry relative="1" as="geometry" />
        </mxCell>
        <mxCell id="lVH471WeTJG-a-mxHw4O-16" value="&lt;font style=&quot;font-size: 8px&quot;&gt;TMI_FINANCE_CREDIT_USE&lt;/font&gt;" style="whiteSpace=wrap;html=1;align=center;strokeWidth=2;fillColor=#FEFDD3;fontSize=8;" vertex="1" parent="1">
          <mxGeometry x="207" y="290" width="180" height="40" as="geometry" />
        </mxCell>
        <mxCell id="lVH471WeTJG-a-mxHw4O-40" style="orthogonalLoop=1;jettySize=auto;html=1;exitX=0;exitY=1;exitDx=0;exitDy=0;entryX=1;entryY=0;entryDx=0;entryDy=0;startArrow=ERmandOne;startFill=0;endArrow=ERoneToMany;endFill=0;fontSize=8;rounded=0;" edge="1" parent="1" source="lVH471WeTJG-a-mxHw4O-17" target="lVH471WeTJG-a-mxHw4O-18">
          <mxGeometry relative="1" as="geometry" />
        </mxCell>
        <mxCell id="lVH471WeTJG-a-mxHw4O-41" style="edgeStyle=none;rounded=0;orthogonalLoop=1;jettySize=auto;html=1;exitX=0.5;exitY=1;exitDx=0;exitDy=0;entryX=0.5;entryY=0;entryDx=0;entryDy=0;startArrow=ERzeroToOne;startFill=1;endArrow=ERmandOne;endFill=0;fontSize=8;" edge="1" parent="1" source="lVH471WeTJG-a-mxHw4O-17" target="lVH471WeTJG-a-mxHw4O-22">
          <mxGeometry relative="1" as="geometry" />
        </mxCell>
        <mxCell id="lVH471WeTJG-a-mxHw4O-43" style="edgeStyle=none;rounded=0;orthogonalLoop=1;jettySize=auto;html=1;exitX=0.5;exitY=0;exitDx=0;exitDy=0;entryX=0.5;entryY=1;entryDx=0;entryDy=0;startArrow=ERmandOne;startFill=0;endArrow=ERoneToMany;endFill=0;fontSize=8;" edge="1" parent="1" source="lVH471WeTJG-a-mxHw4O-17" target="lVH471WeTJG-a-mxHw4O-37">
          <mxGeometry relative="1" as="geometry" />
        </mxCell>
        <mxCell id="lVH471WeTJG-a-mxHw4O-44" style="edgeStyle=none;rounded=0;orthogonalLoop=1;jettySize=auto;html=1;exitX=1;exitY=0.5;exitDx=0;exitDy=0;startArrow=ERmandOne;startFill=0;endArrow=ERoneToMany;endFill=0;fontSize=8;" edge="1" parent="1" source="lVH471WeTJG-a-mxHw4O-17" target="lVH471WeTJG-a-mxHw4O-24">
          <mxGeometry relative="1" as="geometry" />
        </mxCell>
        <mxCell id="lVH471WeTJG-a-mxHw4O-17" value="&lt;font style=&quot;font-size: 8px&quot;&gt;TMI_FINANCE_ORDER&lt;/font&gt;" style="whiteSpace=wrap;html=1;align=center;strokeWidth=2;fillColor=#FEFDD3;fontSize=8;" vertex="1" parent="1">
          <mxGeometry x="480" y="290" width="180" height="40" as="geometry" />
        </mxCell>
        <mxCell id="lVH471WeTJG-a-mxHw4O-18" value="&lt;font style=&quot;font-size: 8px&quot;&gt;TMI_FINANCE_CREDIT_EXTRA&lt;/font&gt;" style="whiteSpace=wrap;html=1;align=center;strokeWidth=2;fillColor=#FEFDD3;fontSize=8;" vertex="1" parent="1">
          <mxGeometry x="235" y="390" width="190" height="40" as="geometry" />
        </mxCell>
        <mxCell id="lVH471WeTJG-a-mxHw4O-21" value="&lt;font style=&quot;font-size: 8px&quot;&gt;TMI_BASE_RATE&lt;/font&gt;" style="whiteSpace=wrap;html=1;align=center;strokeWidth=2;fillColor=#FEFDD3;fontSize=8;" vertex="1" parent="1">
          <mxGeometry y="700" width="160" height="40" as="geometry" />
        </mxCell>
        <mxCell id="lVH471WeTJG-a-mxHw4O-42" style="edgeStyle=none;rounded=0;orthogonalLoop=1;jettySize=auto;html=1;exitX=0.5;exitY=1;exitDx=0;exitDy=0;startArrow=ERmandOne;startFill=0;endArrow=ERoneToMany;endFill=0;fontSize=8;" edge="1" parent="1" source="lVH471WeTJG-a-mxHw4O-22" target="lVH471WeTJG-a-mxHw4O-23">
          <mxGeometry relative="1" as="geometry" />
        </mxCell>
        <mxCell id="lVH471WeTJG-a-mxHw4O-22" value="&lt;font style=&quot;font-size: 8px&quot;&gt;TMI_FINANCE_GUARANTEE_LETTER&lt;/font&gt;" style="whiteSpace=wrap;html=1;align=center;strokeWidth=2;fillColor=#FEFDD3;fontSize=8;" vertex="1" parent="1">
          <mxGeometry x="460" y="390" width="220" height="40" as="geometry" />
        </mxCell>
        <mxCell id="lVH471WeTJG-a-mxHw4O-85" style="edgeStyle=orthogonalEdgeStyle;rounded=1;orthogonalLoop=1;jettySize=auto;html=1;exitX=0.5;exitY=1;exitDx=0;exitDy=0;entryX=0.25;entryY=1;entryDx=0;entryDy=0;startArrow=ERmandOne;startFill=0;endArrow=ERmandOne;endFill=0;strokeWidth=1;fontSize=23;strokeColor=#FF0F0F;curved=1;" edge="1" parent="1" source="lVH471WeTJG-a-mxHw4O-23" target="lVH471WeTJG-a-mxHw4O-25">
          <mxGeometry relative="1" as="geometry" />
        </mxCell>
        <mxCell id="lVH471WeTJG-a-mxHw4O-23" value="&lt;font style=&quot;font-size: 8px&quot;&gt;TMI_FINANCE_LG_FEE_PLAN&lt;/font&gt;" style="whiteSpace=wrap;html=1;align=center;strokeWidth=2;fillColor=#FEFDD3;fontSize=8;" vertex="1" parent="1">
          <mxGeometry x="475" y="470" width="190" height="40" as="geometry" />
        </mxCell>
        <mxCell id="lVH471WeTJG-a-mxHw4O-46" style="edgeStyle=none;rounded=0;orthogonalLoop=1;jettySize=auto;html=1;exitX=0.5;exitY=1;exitDx=0;exitDy=0;entryX=0.5;entryY=0;entryDx=0;entryDy=0;startArrow=ERmandOne;startFill=0;endArrow=ERmandOne;endFill=0;fontSize=8;" edge="1" parent="1" source="lVH471WeTJG-a-mxHw4O-24" target="lVH471WeTJG-a-mxHw4O-32">
          <mxGeometry relative="1" as="geometry" />
        </mxCell>
        <mxCell id="lVH471WeTJG-a-mxHw4O-54" style="edgeStyle=none;rounded=0;orthogonalLoop=1;jettySize=auto;html=1;exitX=0.5;exitY=0;exitDx=0;exitDy=0;entryX=0.5;entryY=1;entryDx=0;entryDy=0;startArrow=ERmandOne;startFill=0;endArrow=ERoneToMany;endFill=0;fontSize=8;" edge="1" parent="1" source="lVH471WeTJG-a-mxHw4O-24" target="lVH471WeTJG-a-mxHw4O-38">
          <mxGeometry relative="1" as="geometry" />
        </mxCell>
        <mxCell id="lVH471WeTJG-a-mxHw4O-56" style="edgeStyle=none;rounded=0;orthogonalLoop=1;jettySize=auto;html=1;exitX=0.25;exitY=1;exitDx=0;exitDy=0;entryX=0.5;entryY=0;entryDx=0;entryDy=0;startArrow=ERmandOne;startFill=0;endArrow=ERoneToMany;endFill=0;fontSize=8;" edge="1" parent="1" source="lVH471WeTJG-a-mxHw4O-24" target="lVH471WeTJG-a-mxHw4O-29">
          <mxGeometry relative="1" as="geometry" />
        </mxCell>
        <mxCell id="lVH471WeTJG-a-mxHw4O-57" style="edgeStyle=none;rounded=0;orthogonalLoop=1;jettySize=auto;html=1;exitX=0.75;exitY=1;exitDx=0;exitDy=0;entryX=0.5;entryY=0;entryDx=0;entryDy=0;startArrow=ERmandOne;startFill=0;endArrow=ERoneToMany;endFill=0;fontSize=8;" edge="1" parent="1" source="lVH471WeTJG-a-mxHw4O-24" target="lVH471WeTJG-a-mxHw4O-25">
          <mxGeometry relative="1" as="geometry" />
        </mxCell>
        <mxCell id="lVH471WeTJG-a-mxHw4O-24" value="&lt;font style=&quot;font-size: 8px&quot;&gt;TMI_FINANCE_LOAN_RECEIPT&lt;/font&gt;" style="whiteSpace=wrap;html=1;align=center;strokeWidth=2;fillColor=#FEFDD3;fontSize=8;" vertex="1" parent="1">
          <mxGeometry x="910" y="290" width="190" height="40" as="geometry" />
        </mxCell>
        <mxCell id="lVH471WeTJG-a-mxHw4O-48" style="edgeStyle=none;rounded=0;orthogonalLoop=1;jettySize=auto;html=1;exitX=0.5;exitY=1;exitDx=0;exitDy=0;entryX=0.5;entryY=0;entryDx=0;entryDy=0;startArrow=ERmandOne;startFill=0;endArrow=ERoneToMany;endFill=0;fontSize=8;" edge="1" parent="1" source="lVH471WeTJG-a-mxHw4O-25" target="lVH471WeTJG-a-mxHw4O-35">
          <mxGeometry relative="1" as="geometry" />
        </mxCell>
        <mxCell id="lVH471WeTJG-a-mxHw4O-58" style="edgeStyle=none;rounded=0;orthogonalLoop=1;jettySize=auto;html=1;exitX=1;exitY=0.5;exitDx=0;exitDy=0;startArrow=ERmandOne;startFill=0;endArrow=ERmandOne;endFill=0;fontSize=8;" edge="1" parent="1" source="lVH471WeTJG-a-mxHw4O-25">
          <mxGeometry relative="1" as="geometry">
            <mxPoint x="1400" y="410" as="targetPoint" />
          </mxGeometry>
        </mxCell>
        <mxCell id="lVH471WeTJG-a-mxHw4O-25" value="&lt;font style=&quot;font-size: 8px&quot;&gt;TMI_FINANCE_REPAY_PLAN&lt;/font&gt;" style="whiteSpace=wrap;html=1;align=center;strokeWidth=2;fillColor=#FEFDD3;fontSize=8;" vertex="1" parent="1">
          <mxGeometry x="1125" y="390" width="190" height="40" as="geometry" />
        </mxCell>
        <mxCell id="lVH471WeTJG-a-mxHw4O-59" style="edgeStyle=none;rounded=0;orthogonalLoop=1;jettySize=auto;html=1;exitX=0.5;exitY=1;exitDx=0;exitDy=0;entryX=0.5;entryY=0;entryDx=0;entryDy=0;startArrow=ERmandOne;startFill=0;endArrow=ERoneToMany;endFill=0;fontSize=8;" edge="1" parent="1" source="lVH471WeTJG-a-mxHw4O-26" target="lVH471WeTJG-a-mxHw4O-27">
          <mxGeometry relative="1" as="geometry" />
        </mxCell>
        <mxCell id="lVH471WeTJG-a-mxHw4O-82" style="edgeStyle=orthogonalEdgeStyle;rounded=0;orthogonalLoop=1;jettySize=auto;html=1;exitX=1;exitY=0.5;exitDx=0;exitDy=0;entryX=0;entryY=0.5;entryDx=0;entryDy=0;dashed=1;startArrow=ERmandOne;startFill=0;endArrow=ERmandOne;endFill=0;strokeWidth=1;fontSize=23;" edge="1" parent="1" source="lVH471WeTJG-a-mxHw4O-26" target="lVH471WeTJG-a-mxHw4O-81">
          <mxGeometry relative="1" as="geometry" />
        </mxCell>
        <mxCell id="lVH471WeTJG-a-mxHw4O-26" value="&lt;font style=&quot;font-size: 8px&quot;&gt;TMI_FINANCE_REPAY_RECEIPT&lt;/font&gt;" style="whiteSpace=wrap;html=1;align=center;strokeWidth=2;fillColor=#FEFDD3;fontSize=8;" vertex="1" parent="1">
          <mxGeometry x="1400" y="290" width="190" height="40" as="geometry" />
        </mxCell>
        <mxCell id="lVH471WeTJG-a-mxHw4O-60" style="edgeStyle=orthogonalEdgeStyle;rounded=0;orthogonalLoop=1;jettySize=auto;html=1;exitX=1;exitY=0.5;exitDx=0;exitDy=0;entryX=0;entryY=0.5;entryDx=0;entryDy=0;startArrow=ERmandOne;startFill=0;endArrow=ERmandOne;endFill=0;fontSize=8;" edge="1" parent="1" source="lVH471WeTJG-a-mxHw4O-27" target="lVH471WeTJG-a-mxHw4O-28">
          <mxGeometry relative="1" as="geometry" />
        </mxCell>
        <mxCell id="lVH471WeTJG-a-mxHw4O-27" value="&lt;font style=&quot;font-size: 8px&quot;&gt;TMI_FINANCE_REPAY_DETAIL&lt;/font&gt;" style="whiteSpace=wrap;html=1;align=center;strokeWidth=2;fillColor=#FEFDD3;fontSize=8;" vertex="1" parent="1">
          <mxGeometry x="1400" y="390" width="190" height="40" as="geometry" />
        </mxCell>
        <mxCell id="lVH471WeTJG-a-mxHw4O-28" value="&lt;font style=&quot;font-size: 8px&quot;&gt;TMI_TRANSACTION&lt;/font&gt;" style="whiteSpace=wrap;html=1;align=center;strokeWidth=2;fillColor=#FEFDD3;fontSize=8;" vertex="1" parent="1">
          <mxGeometry x="1680" y="460" width="190" height="40" as="geometry" />
        </mxCell>
        <mxCell id="lVH471WeTJG-a-mxHw4O-52" style="edgeStyle=none;rounded=0;orthogonalLoop=1;jettySize=auto;html=1;exitX=0.5;exitY=1;exitDx=0;exitDy=0;entryX=0.5;entryY=0;entryDx=0;entryDy=0;startArrow=ERmandOne;startFill=0;endArrow=ERoneToMany;endFill=0;fontSize=8;" edge="1" parent="1" source="lVH471WeTJG-a-mxHw4O-29" target="lVH471WeTJG-a-mxHw4O-30">
          <mxGeometry relative="1" as="geometry" />
        </mxCell>
        <mxCell id="lVH471WeTJG-a-mxHw4O-29" value="&lt;font style=&quot;font-size: 8px&quot;&gt;TMI_PRODUCT&lt;/font&gt;" style="whiteSpace=wrap;html=1;align=center;strokeWidth=2;fillColor=#FEFDD3;fontSize=8;" vertex="1" parent="1">
          <mxGeometry x="695" y="390" width="190" height="40" as="geometry" />
        </mxCell>
        <mxCell id="lVH471WeTJG-a-mxHw4O-30" value="&lt;font style=&quot;font-size: 8px&quot;&gt;TMI_PRODUCT_RATE&lt;/font&gt;" style="whiteSpace=wrap;html=1;align=center;strokeWidth=2;fillColor=#FEFDD3;fontSize=8;" vertex="1" parent="1">
          <mxGeometry x="695" y="460" width="190" height="40" as="geometry" />
        </mxCell>
        <mxCell id="lVH471WeTJG-a-mxHw4O-47" style="edgeStyle=none;rounded=0;orthogonalLoop=1;jettySize=auto;html=1;exitX=0.5;exitY=1;exitDx=0;exitDy=0;entryX=0.5;entryY=0;entryDx=0;entryDy=0;startArrow=ERmandOne;startFill=0;endArrow=ERoneToMany;endFill=0;fontSize=8;" edge="1" parent="1" source="lVH471WeTJG-a-mxHw4O-32" target="lVH471WeTJG-a-mxHw4O-33">
          <mxGeometry relative="1" as="geometry" />
        </mxCell>
        <mxCell id="lVH471WeTJG-a-mxHw4O-32" value="&lt;font style=&quot;font-size: 8px&quot;&gt;TMI_INSTANCE_HOLD&lt;/font&gt;" style="whiteSpace=wrap;html=1;align=center;strokeWidth=2;fillColor=#FEFDD3;fontSize=8;" vertex="1" parent="1">
          <mxGeometry x="910" y="390" width="190" height="40" as="geometry" />
        </mxCell>
        <mxCell id="lVH471WeTJG-a-mxHw4O-33" value="&lt;font style=&quot;font-size: 8px&quot;&gt;TMI_HOLDING_JOURNAL&lt;/font&gt;" style="whiteSpace=wrap;html=1;align=center;strokeWidth=2;fillColor=#FEFDD3;fontSize=8;" vertex="1" parent="1">
          <mxGeometry x="910" y="460" width="190" height="40" as="geometry" />
        </mxCell>
        <mxCell id="lVH471WeTJG-a-mxHw4O-34" value="&lt;font style=&quot;font-size: 8px&quot;&gt;TMI_FINANCE_BANK_HOC_CALC&lt;/font&gt;" style="whiteSpace=wrap;html=1;align=center;strokeWidth=2;fillColor=#FEFDD3;fontSize=8;" vertex="1" parent="1">
          <mxGeometry x="190" y="700" width="200" height="40" as="geometry" />
        </mxCell>
        <mxCell id="lVH471WeTJG-a-mxHw4O-49" style="edgeStyle=none;rounded=0;orthogonalLoop=1;jettySize=auto;html=1;exitX=0.5;exitY=1;exitDx=0;exitDy=0;entryX=0.5;entryY=0;entryDx=0;entryDy=0;startArrow=ERmandOne;startFill=0;endArrow=ERoneToMany;endFill=0;fontSize=8;" edge="1" parent="1" source="lVH471WeTJG-a-mxHw4O-35" target="lVH471WeTJG-a-mxHw4O-36">
          <mxGeometry relative="1" as="geometry" />
        </mxCell>
        <mxCell id="lVH471WeTJG-a-mxHw4O-35" value="&lt;font style=&quot;font-size: 8px&quot;&gt;TMI_FINANCE_PLAN_CHANGE&lt;/font&gt;" style="whiteSpace=wrap;html=1;align=center;strokeWidth=2;fillColor=#FEFDD3;fontSize=8;" vertex="1" parent="1">
          <mxGeometry x="1125" y="520" width="190" height="40" as="geometry" />
        </mxCell>
        <mxCell id="lVH471WeTJG-a-mxHw4O-36" value="&lt;font style=&quot;font-size: 8px&quot;&gt;TMI_FINANCE_PLAN_CHANGE_DETAIL&lt;br&gt;&lt;/font&gt;" style="whiteSpace=wrap;html=1;align=center;strokeWidth=2;fillColor=#FEFDD3;fontSize=8;" vertex="1" parent="1">
          <mxGeometry x="1100" y="600" width="240" height="40" as="geometry" />
        </mxCell>
        <mxCell id="lVH471WeTJG-a-mxHw4O-37" value="&lt;font style=&quot;font-size: 8px&quot;&gt;TMI_FINANCE_RATE_CHANGE&lt;br&gt;&lt;/font&gt;" style="whiteSpace=wrap;html=1;align=center;strokeWidth=2;fillColor=#FEFDD3;fontSize=8;" vertex="1" parent="1">
          <mxGeometry x="460" y="180" width="220" height="40" as="geometry" />
        </mxCell>
        <mxCell id="lVH471WeTJG-a-mxHw4O-38" value="&lt;font style=&quot;font-size: 8px&quot;&gt;TMI_FINANCE_WINDOW_DATE&lt;br&gt;&lt;/font&gt;" style="whiteSpace=wrap;html=1;align=center;strokeWidth=2;fillColor=#FEFDD3;fontSize=8;" vertex="1" parent="1">
          <mxGeometry x="907.5" y="180" width="195" height="40" as="geometry" />
        </mxCell>
        <mxCell id="lVH471WeTJG-a-mxHw4O-62" value="" style="endArrow=none;html=1;fontSize=8;strokeWidth=2;strokeColor=#E42C64;dashed=1;" edge="1" parent="1">
          <mxGeometry width="50" height="50" relative="1" as="geometry">
            <mxPoint x="180" y="640" as="sourcePoint" />
            <mxPoint x="180" y="40" as="targetPoint" />
          </mxGeometry>
        </mxCell>
        <mxCell id="lVH471WeTJG-a-mxHw4O-65" value="" style="endArrow=none;html=1;fontSize=8;strokeWidth=2;strokeColor=#E42C64;dashed=1;" edge="1" parent="1">
          <mxGeometry width="50" height="50" relative="1" as="geometry">
            <mxPoint x="690" y="640" as="sourcePoint" />
            <mxPoint x="690" y="40" as="targetPoint" />
          </mxGeometry>
        </mxCell>
        <mxCell id="lVH471WeTJG-a-mxHw4O-66" value="" style="endArrow=none;html=1;fontSize=8;strokeWidth=2;strokeColor=#E42C64;dashed=1;" edge="1" parent="1">
          <mxGeometry width="50" height="50" relative="1" as="geometry">
            <mxPoint x="1360" y="640" as="sourcePoint" />
            <mxPoint x="1360" y="40" as="targetPoint" />
          </mxGeometry>
        </mxCell>
        <mxCell id="lVH471WeTJG-a-mxHw4O-67" value="" style="endArrow=none;html=1;fontSize=8;strokeWidth=2;strokeColor=#E42C64;dashed=1;" edge="1" parent="1">
          <mxGeometry width="50" height="50" relative="1" as="geometry">
            <mxPoint x="1640" y="640" as="sourcePoint" />
            <mxPoint x="1640" y="50" as="targetPoint" />
          </mxGeometry>
        </mxCell>
        <mxCell id="lVH471WeTJG-a-mxHw4O-68" value="授信" style="text;html=1;strokeColor=none;fillColor=none;align=center;verticalAlign=middle;whiteSpace=wrap;rounded=0;fontSize=23;" vertex="1" parent="1">
          <mxGeometry x="50" y="50" width="70" height="20" as="geometry" />
        </mxCell>
        <mxCell id="lVH471WeTJG-a-mxHw4O-70" value="合同" style="text;html=1;strokeColor=none;fillColor=none;align=center;verticalAlign=middle;whiteSpace=wrap;rounded=0;fontSize=23;" vertex="1" parent="1">
          <mxGeometry x="410" y="50" width="90" height="20" as="geometry" />
        </mxCell>
        <mxCell id="lVH471WeTJG-a-mxHw4O-72" value="提款" style="text;html=1;strokeColor=none;fillColor=none;align=center;verticalAlign=middle;whiteSpace=wrap;rounded=0;fontSize=23;" vertex="1" parent="1">
          <mxGeometry x="880" y="50" width="90" height="20" as="geometry" />
        </mxCell>
        <mxCell id="lVH471WeTJG-a-mxHw4O-73" value="还款" style="text;html=1;strokeColor=none;fillColor=none;align=center;verticalAlign=middle;whiteSpace=wrap;rounded=0;fontSize=23;" vertex="1" parent="1">
          <mxGeometry x="1470" y="50" width="90" height="20" as="geometry" />
        </mxCell>
        <mxCell id="lVH471WeTJG-a-mxHw4O-74" value="交易和备资" style="text;html=1;strokeColor=none;fillColor=none;align=center;verticalAlign=middle;whiteSpace=wrap;rounded=0;fontSize=23;" vertex="1" parent="1">
          <mxGeometry x="1700" y="50" width="150" height="20" as="geometry" />
        </mxCell>
        <mxCell id="lVH471WeTJG-a-mxHw4O-78" value="" style="ellipse;whiteSpace=wrap;html=1;strokeWidth=2;fontSize=23;fillColor=none;strokeColor=#3333FF;dashed=1;" vertex="1" parent="1">
          <mxGeometry x="680" y="360" width="440" height="160" as="geometry" />
        </mxCell>
        <mxCell id="lVH471WeTJG-a-mxHw4O-79" value="&lt;font color=&quot;#ff0f0f&quot;&gt;持仓&lt;/font&gt;" style="text;html=1;strokeColor=none;fillColor=none;align=center;verticalAlign=middle;whiteSpace=wrap;rounded=0;fontSize=23;" vertex="1" parent="1">
          <mxGeometry x="855" y="370" width="90" height="20" as="geometry" />
        </mxCell>
        <mxCell id="lVH471WeTJG-a-mxHw4O-84" style="edgeStyle=orthogonalEdgeStyle;rounded=0;orthogonalLoop=1;jettySize=auto;html=1;exitX=0.5;exitY=1;exitDx=0;exitDy=0;entryX=0.5;entryY=0;entryDx=0;entryDy=0;dashed=1;startArrow=ERmandOne;startFill=0;endArrow=ERoneToMany;endFill=0;strokeColor=#000000;strokeWidth=1;fontSize=23;" edge="1" parent="1" source="lVH471WeTJG-a-mxHw4O-81" target="lVH471WeTJG-a-mxHw4O-83">
          <mxGeometry relative="1" as="geometry" />
        </mxCell>
        <mxCell id="lVH471WeTJG-a-mxHw4O-81" value="&lt;font style=&quot;font-size: 8px&quot;&gt;TMI_CASH_ALLOT_PLAN&lt;/font&gt;" style="whiteSpace=wrap;html=1;align=center;strokeWidth=2;fillColor=#FEFDD3;fontSize=8;" vertex="1" parent="1">
          <mxGeometry x="1680" y="290" width="190" height="40" as="geometry" />
        </mxCell>
        <mxCell id="lVH471WeTJG-a-mxHw4O-83" value="&lt;font style=&quot;font-size: 8px&quot;&gt;TMI_CASH_ALOT_DETAIL&lt;/font&gt;" style="whiteSpace=wrap;html=1;align=center;strokeWidth=2;fillColor=#FEFDD3;fontSize=8;" vertex="1" parent="1">
          <mxGeometry x="1680" y="360" width="190" height="40" as="geometry" />
        </mxCell>
      </root>
    </mxGraphModel>
  </diagram>
</mxfile>
